<?xml version="1.0" standalone="no"?>
<!DOCTYPE svg PUBLIC "-//W3C//DTD SVG 20010904//EN"
 "http://www.w3.org/TR/2001/REC-SVG-20010904/DTD/svg10.dtd">
<svg version="1.0" xmlns="http://www.w3.org/2000/svg"
 width="658.000000pt" height="379.000000pt" viewBox="0 0 658.000000 379.000000"
 preserveAspectRatio="xMidYMid meet">

<g transform="translate(0.000000,379.000000) scale(0.100000,-0.100000)"
fill="#000000" stroke="none">
<path d="M1738 3746 c-117 -34 -236 -124 -273 -206 -15 -33 -25 -42 -59 -51
-211 -54 -385 -212 -472 -427 -13 -33 -31 -88 -40 -123 -9 -35 -21 -67 -26
-70 -6 -4 -34 -9 -64 -13 -29 -3 -83 -17 -118 -30 l-66 -23 -21 56 c-24 63
-22 133 5 159 15 15 18 15 47 -2 37 -22 59 -15 59 19 0 38 -40 53 -84 33 -64
-31 -83 -121 -46 -225 11 -31 19 -57 17 -58 -113 -76 -163 -127 -205 -212 -58
-114 -65 -241 -20 -360 20 -55 20 -57 2 -70 -186 -130 -274 -244 -293 -384
-14 -108 13 -226 75 -320 16 -25 16 -27 -15 -72 -39 -57 -65 -154 -56 -210 22
-141 128 -221 291 -222 73 0 87 3 155 37 81 41 138 82 127 93 -4 4 -26 -9 -49
-29 -64 -54 -138 -79 -234 -79 -66 0 -89 4 -131 26 -139 71 -178 206 -99 343
40 69 48 71 97 29 90 -77 277 -145 398 -145 76 0 160 16 252 47 l77 26 58 -50
c82 -70 161 -127 211 -152 23 -12 42 -28 42 -36 0 -28 -116 -130 -185 -164
-88 -44 -164 -51 -227 -23 -39 17 -89 66 -77 76 2 1 25 10 52 20 37 14 47 23
47 40 0 30 -18 46 -52 46 -41 0 -68 -32 -68 -81 0 -34 6 -48 38 -79 109 -110
338 -48 473 128 l25 33 89 -22 c127 -30 303 -29 400 1 88 28 153 61 230 115
60 42 132 113 153 150 10 20 11 20 59 1 74 -29 174 -56 206 -56 37 0 43 -20
29 -104 -41 -242 -245 -442 -528 -516 -111 -29 -116 -28 -153 30 -104 161
-322 240 -463 169 -89 -45 -51 -149 77 -211 89 -44 171 -61 300 -62 l119 -1 8
-35 c10 -47 -6 -142 -33 -197 -52 -107 -203 -207 -363 -239 -97 -20 -290 -15
-381 10 -203 55 -371 212 -416 390 -9 35 -14 44 -20 33 -5 -9 -3 -31 5 -54 94
-267 330 -413 668 -413 314 0 521 137 557 369 6 35 8 82 5 105 l-6 42 88 24
c49 13 130 44 179 69 73 37 107 63 180 136 119 119 173 218 199 370 l12 70
115 2 c301 5 531 147 619 381 28 72 38 232 21 315 -29 135 -134 277 -264 355
-271 163 -681 120 -906 -97 -36 -35 -46 -46 -21 -24 162 140 311 196 530 197
103 0 138 -4 200 -23 185 -56 320 -185 372 -355 27 -86 31 -252 9 -331 -47
-168 -174 -299 -351 -362 -62 -23 -96 -28 -201 -31 l-126 -4 -6 79 c-3 44 -15
106 -29 143 l-24 66 97 -4 c71 -3 111 0 155 13 33 10 70 18 83 19 31 1 49 41
19 43 -10 1 -22 -5 -25 -13 -12 -32 -204 -63 -293 -47 -41 8 -48 14 -91 79
-26 39 -69 93 -95 120 -55 56 -173 149 -180 141 -2 -2 21 -23 51 -46 78 -59
157 -140 204 -210 23 -33 41 -62 41 -65 0 -3 -12 -1 -26 4 -43 17 -42 10 2
-10 37 -16 44 -25 63 -82 12 -34 25 -97 28 -139 l6 -76 -64 9 c-143 21 -279
85 -347 163 -56 62 -58 76 -28 136 33 68 37 156 6 184 -25 23 -62 14 -81 -21
-18 -34 -18 -124 0 -187 14 -47 13 -48 -14 -77 -16 -17 -32 -30 -37 -30 -4 0
-8 173 -8 383 l0 384 43 13 c73 22 134 58 186 111 170 173 202 514 72 771
l-39 76 33 32 c55 53 78 119 73 214 -6 140 -75 237 -217 304 -67 32 -83 36
-175 38 -64 2 -118 -2 -148 -10z m247 -20 c130 -34 219 -119 251 -239 17 -63
18 -128 3 -182 -12 -46 -56 -115 -73 -115 -7 0 -29 22 -50 50 -76 100 -227
199 -366 241 -56 17 -101 23 -177 23 -68 1 -103 5 -103 12 0 17 53 87 90 117
45 38 124 78 185 93 67 17 179 17 240 0z m-241 -296 c116 -29 209 -83 299
-171 42 -42 77 -83 77 -91 0 -35 -150 -40 -217 -7 -49 24 -100 87 -109 136 -7
37 -21 50 -36 35 -29 -29 51 -150 124 -188 48 -25 123 -34 181 -23 28 6 58 11
66 12 19 3 86 -134 108 -218 22 -88 22 -245 -1 -335 -41 -164 -142 -295 -263
-340 -32 -12 -59 -18 -60 -13 -14 39 -53 42 -53 3 0 -17 -6 -20 -42 -20 -73 0
-83 6 -104 68 -23 68 -99 198 -155 264 -45 54 -47 63 -17 79 18 10 24 8 34 -7
25 -36 34 -43 49 -38 19 8 19 48 0 64 -20 16 -73 6 -100 -20 l-22 -21 -39 37
c-21 19 -58 50 -81 66 -23 17 -40 35 -36 41 5 8 80 45 142 68 13 5 22 12 19
14 -7 7 -77 -14 -141 -42 l-57 -26 -75 34 c-67 31 -75 37 -81 68 -9 48 10 145
34 169 11 11 29 23 41 27 12 3 21 10 21 14 0 5 12 20 26 35 29 29 28 31 -10
16 -18 -7 -26 -6 -26 2 0 13 30 37 47 38 7 0 23 11 36 24 14 13 41 29 62 35
37 10 39 9 84 -39 40 -43 53 -50 84 -50 41 0 58 21 40 49 -14 22 -83 61 -110
61 -12 0 -27 9 -33 19 -11 22 -14 174 -3 184 15 16 221 7 297 -13z m-318 -185
c-1 0 -23 -8 -51 -19 -27 -10 -62 -20 -77 -23 -16 -3 -28 -10 -28 -16 0 -13
-30 -47 -41 -47 -5 0 -6 15 -3 33 6 28 3 26 -20 -18 -14 -27 -26 -60 -26 -72
0 -12 -5 -23 -11 -25 -11 -4 -15 -27 -25 -151 -6 -65 -9 -77 -23 -73 -49 14
-102 25 -153 31 -32 3 -58 8 -58 10 0 25 60 196 88 250 72 139 223 262 368
299 l49 12 6 -95 c3 -53 5 -96 5 -96z m111 -49 c22 -19 25 -27 16 -37 -18 -19
-61 -2 -78 31 -15 29 -15 30 9 30 14 0 38 -11 53 -24z m-437 -377 c90 -23 216
-89 171 -89 -6 0 -37 -25 -70 -56 -78 -72 -127 -166 -137 -263 l-6 -68 -56 -6
c-31 -3 -59 -4 -63 -1 -4 2 -16 39 -26 82 -13 57 -18 118 -18 237 0 88 3 167
6 176 6 13 18 14 80 8 41 -5 94 -13 119 -20z m-232 -51 c-13 -116 7 -321 41
-410 12 -32 9 -35 -43 -39 -38 -4 -39 -3 -54 44 -18 55 -78 129 -121 147 -27
11 -29 14 -19 41 14 41 6 147 -15 188 -9 19 -16 35 -15 36 31 24 152 64 199
64 l35 1 -8 -72z m-224 -55 c17 -48 20 -124 7 -156 -5 -14 -19 -19 -61 -22
-59 -3 -94 -30 -88 -69 5 -36 57 -33 110 7 48 37 58 37 107 -7 25 -22 71 -110
71 -136 0 -11 -29 -24 -95 -44 -53 -16 -130 -44 -173 -63 -42 -19 -82 -36 -88
-39 -20 -9 -39 78 -37 171 2 105 25 191 73 265 35 54 124 140 145 140 7 0 20
-21 29 -47z m740 -37 c96 -69 101 -76 102 -165 1 -101 28 -165 101 -231 30
-27 72 -55 94 -61 45 -14 53 -31 70 -164 18 -137 -9 -333 -65 -458 -23 -53
-83 -146 -125 -195 -23 -27 -38 -25 -113 16 -64 34 -62 53 12 126 106 104 156
248 132 376 -19 106 -52 161 -164 276 -87 90 -98 104 -73 98 76 -19 189 -73
295 -140 15 -10 12 -4 -9 15 -49 43 -154 96 -257 129 l-89 29 -32 63 c-28 53
-33 74 -33 132 0 38 6 83 13 101 14 31 63 97 74 97 3 0 33 -20 67 -44z m189
-182 c53 -65 141 -232 136 -257 -4 -15 -7 -15 -36 -1 -98 48 -163 146 -171
257 -6 85 3 86 71 1z m-958 17 c6 -11 -42 -51 -62 -51 -19 0 -28 27 -13 45 14
16 65 20 75 6z m455 -209 c0 -9 13 -45 29 -79 22 -46 62 -95 159 -196 135
-140 164 -185 183 -278 9 -45 8 -67 -5 -119 -27 -103 -37 -105 -58 -9 -31 144
-86 238 -233 398 -80 87 -149 180 -181 243 -13 26 -24 50 -24 52 0 6 111 13
123 8 4 -2 7 -11 7 -20z m-135 -12 c12 -38 104 -167 175 -245 145 -160 201
-247 238 -365 30 -98 36 -161 18 -185 -14 -19 -15 -19 -27 8 -7 15 -17 27 -23
27 -6 0 -16 10 -21 23 -7 14 -18 21 -32 20 -19 -2 -21 2 -20 43 0 38 -5 51
-31 77 -37 36 -46 33 -30 -11 7 -17 9 -34 5 -38 -10 -11 -67 46 -67 67 0 11
-9 19 -22 21 -14 2 -24 12 -28 28 -4 15 -13 25 -24 25 -10 0 -22 10 -27 23 -5
12 -16 22 -25 22 -9 0 -38 16 -64 35 -26 19 -74 47 -106 63 -52 24 -70 27
-159 27 -83 -1 -109 -5 -152 -24 -99 -44 -156 -139 -119 -196 31 -47 111 -22
85 27 -5 10 -20 18 -32 18 -12 0 -28 4 -35 9 -22 13 10 65 61 99 65 45 108 55
212 50 79 -3 101 -8 160 -37 37 -18 86 -52 109 -75 22 -22 46 -41 51 -41 6 0
14 -10 20 -22 5 -12 20 -24 32 -28 14 -3 23 -13 23 -25 0 -11 6 -20 13 -20 17
0 83 -68 74 -77 -4 -3 -23 1 -43 10 l-35 17 6 -22 c12 -40 45 -60 92 -56 36 3
43 0 45 -17 2 -13 12 -21 29 -23 17 -2 29 -11 32 -23 3 -11 14 -19 26 -19 31
0 26 -12 -19 -40 -52 -32 -41 -41 14 -10 69 37 80 26 72 -67 -4 -43 -9 -80
-12 -82 -2 -2 -31 17 -64 43 -233 183 -343 249 -466 280 -89 23 -252 21 -348
-4 -94 -24 -184 -67 -251 -120 -58 -46 -60 -45 -97 49 -17 44 -22 77 -23 152
0 90 2 99 38 172 42 84 111 166 198 232 50 39 58 43 70 29 30 -37 101 -67 158
-68 138 -2 241 95 241 228 0 26 13 33 67 35 23 1 33 -4 38 -19z m-147 -50
c-12 -120 -133 -206 -242 -170 -42 14 -96 56 -96 75 0 24 269 143 329 145 10
0 12 -12 9 -50z m1072 -78 c0 -15 4 -121 9 -237 6 -115 13 -278 16 -361 l6
-151 -53 -24 c-45 -21 -68 -24 -160 -24 -58 0 -109 3 -113 7 -4 3 18 39 48 80
119 158 159 281 160 488 1 95 -4 152 -15 192 -9 31 -14 58 -13 60 2 2 28 1 59
0 53 -4 56 -5 56 -30z m195 -481 c11 -35 -28 -155 -49 -148 -27 9 -35 146 -10
171 18 19 49 7 59 -23z m-1375 -211 c78 -26 157 -73 225 -133 l50 -45 -37 -15
c-67 -28 -152 -41 -268 -41 -126 0 -192 15 -290 64 -55 28 -140 94 -140 109 0
12 112 69 156 81 64 16 230 5 304 -20z m1434 -114 c31 -20 56 -41 56 -46 0
-17 -104 -99 -164 -129 -64 -33 -174 -61 -239 -61 -96 0 -275 63 -351 124 -27
21 -27 23 -20 98 l7 77 36 -19 c114 -57 289 -72 390 -32 30 12 56 20 58 19 1
-2 7 -28 12 -58 l9 -54 1 65 c1 64 2 66 43 101 l42 37 32 -43 c18 -23 58 -59
88 -79z m-579 -552 c99 -25 199 -95 246 -171 29 -47 18 -53 -98 -53 -214 0
-383 68 -383 156 0 30 31 62 67 70 16 3 33 7 38 9 24 8 75 4 130 -11z"/>
<path d="M1762 3044 c-125 -62 -180 -158 -151 -262 14 -50 54 -95 183 -206 97
-84 119 -147 72 -203 -14 -16 -43 -35 -66 -42 -54 -16 -43 -31 16 -20 52 10
138 56 171 91 68 72 70 218 5 292 -9 10 -61 48 -115 82 -115 76 -138 108 -119
173 11 36 36 64 104 113 l23 17 -26 1 c-15 0 -58 -16 -97 -36z"/>
<path d="M5215 2118 c-32 -55 -95 -117 -179 -176 -45 -31 -102 -78 -128 -105
l-48 -48 0 31 c0 39 -21 80 -66 129 l-34 39 25 53 c33 72 31 97 -3 34 -20 -37
-49 -67 -112 -113 -118 -88 -172 -133 -167 -139 3 -2 23 6 45 18 35 20 42 21
71 9 18 -7 44 -29 59 -48 l27 -35 0 -273 0 -273 -30 -31 c-16 -18 -47 -41 -67
-51 -52 -26 -48 -37 11 -31 48 4 51 3 100 -43 63 -59 68 -76 41 -120 -12 -19
-20 -41 -18 -47 3 -7 20 12 40 43 32 50 120 139 138 139 4 0 25 7 45 16 l38
16 -39 18 c-45 20 -78 53 -93 93 -7 17 -11 125 -11 276 l0 248 28 39 c35 48
107 114 125 114 7 0 29 -16 48 -36 40 -42 98 -74 134 -74 38 0 79 24 178 103
48 39 87 72 87 73 0 2 -16 -4 -35 -12 -78 -32 -182 -6 -218 55 -15 25 -14 29
7 67 12 21 25 47 29 57 11 29 -8 19 -28 -15z"/>
<path d="M6164 2067 c-32 -34 -104 -100 -158 -147 -214 -182 -306 -345 -306
-540 0 -138 31 -231 109 -325 23 -27 41 -54 41 -60 0 -6 -20 -35 -45 -64 -25
-29 -45 -60 -45 -69 1 -12 7 -8 23 13 48 64 85 100 177 170 52 40 119 98 149
129 57 57 71 62 71 20 0 -38 37 -104 88 -156 l46 -47 -30 -43 c-53 -75 -50
-75 34 4 46 42 119 100 162 129 44 28 80 56 80 60 0 14 -12 11 -45 -11 -43
-28 -78 -25 -119 10 -64 56 -66 69 -66 355 0 155 4 264 10 275 6 11 31 31 56
46 25 14 43 29 40 32 -3 3 -27 12 -53 21 -42 14 -141 75 -212 130 l-24 19 43
51 c62 73 44 72 -26 -2z m-103 -193 c17 -8 48 -31 70 -51 l39 -35 0 -258 0
-257 -29 -40 c-39 -54 -68 -73 -110 -73 -49 0 -114 69 -138 147 -25 80 -24
274 1 358 30 98 101 225 127 225 5 0 24 -7 40 -16z"/>
<path d="M4144 2039 c-22 -28 -75 -77 -119 -109 -81 -59 -163 -136 -154 -145
3 -2 21 7 41 21 42 30 57 26 107 -31 l31 -36 0 -198 0 -198 -41 -59 c-58 -84
-119 -144 -146 -144 -27 0 -88 51 -109 91 -11 23 -14 87 -14 339 0 348 0 347
-69 393 -41 27 -41 28 -25 53 23 34 11 41 -23 14 -116 -90 -257 -240 -241
-255 2 -3 26 15 51 40 63 60 83 58 135 -9 21 -28 22 -35 22 -283 0 -192 -3
-262 -14 -286 -14 -35 -52 -70 -106 -100 -40 -22 -32 -35 10 -17 27 11 36 10
93 -18 71 -35 127 -85 127 -114 0 -10 -11 -35 -25 -55 -13 -20 -22 -40 -19
-45 5 -8 83 70 84 84 0 4 45 46 100 94 55 47 124 118 153 157 l52 70 5 -84 c6
-93 13 -112 77 -183 l43 -49 -26 -44 c-14 -25 -24 -46 -22 -48 2 -2 34 31 71
73 36 42 101 114 143 160 79 87 93 121 24 58 -22 -20 -43 -36 -46 -36 -16 0
-65 33 -88 60 l-26 32 0 273 0 274 54 38 c30 21 62 43 72 50 15 10 13 10 -14
2 -43 -15 -69 -7 -120 37 -65 55 -67 64 -30 123 42 68 30 75 -18 10z"/>
<path d="M2480 2052 c-64 -22 -156 -67 -165 -82 -10 -16 3 -12 43 14 129 85
380 95 422 17 6 -12 20 -21 30 -21 13 0 20 -7 20 -20 0 -10 9 -24 20 -30 13
-7 20 -21 20 -40 0 -17 4 -30 9 -30 14 0 23 -32 11 -44 -14 -14 -13 -42 2 -66
11 -17 9 -22 -10 -36 -16 -11 -21 -21 -16 -40 5 -19 2 -24 -14 -24 -22 0 -34
-20 -23 -39 11 -17 41 -2 41 20 0 11 10 23 24 29 30 11 41 29 28 42 -13 13 -4
45 14 52 19 7 18 55 -2 63 -13 5 -15 14 -10 45 6 34 4 39 -19 48 -18 7 -25 17
-25 35 0 18 -5 25 -20 25 -12 0 -26 12 -35 31 -9 17 -19 28 -22 25 -3 -3 -24
4 -47 16 -58 30 -199 35 -276 10z"/>
<path d="M5307 1800 c-132 -126 -167 -212 -167 -405 0 -111 17 -211 45 -264 8
-16 38 -54 66 -85 l52 -57 -22 -46 c-12 -25 -20 -47 -18 -49 2 -2 24 26 49 63
25 38 86 113 136 168 51 55 92 107 91 115 0 10 -2 11 -5 3 -3 -7 -21 -22 -40
-33 -25 -16 -42 -20 -66 -15 -118 25 -177 158 -165 369 6 122 34 193 101 263
81 83 35 62 -57 -27z"/>
</g>
</svg>
